<?xml version="1.0" encoding="UTF-8" standalone="no"?>
<!-- Created with Inkscape (http://www.inkscape.org/) -->

<svg
   xmlns:dc="http://purl.org/dc/elements/1.1/"
   xmlns:cc="http://creativecommons.org/ns#"
   xmlns:rdf="http://www.w3.org/1999/02/22-rdf-syntax-ns#"
   xmlns:svg="http://www.w3.org/2000/svg"
   xmlns="http://www.w3.org/2000/svg"
   xmlns:sodipodi="http://sodipodi.sourceforge.net/DTD/sodipodi-0.dtd"
   xmlns:inkscape="http://www.inkscape.org/namespaces/inkscape"
   width="21.639236mm"
   height="19.200035mm"
   viewBox="0 0 21.639236 19.200035"
   version="1.1"
   id="svg9952"
   inkscape:version="0.92.5 (2060ec1f9f, 2020-04-08)"
   sodipodi:docname="black-icon.svg">
  <defs
     id="defs9946" />
  <sodipodi:namedview
     id="base"
     pagecolor="#ffffff"
     bordercolor="#666666"
     borderopacity="1.0"
     inkscape:pageopacity="0.0"
     inkscape:pageshadow="2"
     inkscape:zoom="2.8"
     inkscape:cx="-11.723154"
     inkscape:cy="30.425795"
     inkscape:document-units="mm"
     inkscape:current-layer="layer1"
     showgrid="false"
     inkscape:window-width="1366"
     inkscape:window-height="739"
     inkscape:window-x="0"
     inkscape:window-y="0"
     inkscape:window-maximized="1"
     fit-margin-top="0"
     fit-margin-left="0"
     fit-margin-right="0"
     fit-margin-bottom="0"
     inkscape:pagecheckerboard="true" />
  <metadata
     id="metadata9949">
    <rdf:RDF>
      <cc:Work
         rdf:about="">
        <dc:format>image/svg+xml</dc:format>
        <dc:type
           rdf:resource="http://purl.org/dc/dcmitype/StillImage" />
        <dc:title></dc:title>
      </cc:Work>
    </rdf:RDF>
  </metadata>
  <g
     inkscape:label="Layer 1"
     inkscape:groupmode="layer"
     id="layer1"
     transform="translate(-0.23617323,-0.04054651)">
    <g
       id="g863"
       style="stroke:none">
      <g
         transform="matrix(1.1880121,0,0,1.1880121,211.89191,-98.263556)"
         style="fill:none;fill-opacity:1;stroke:none;stroke-opacity:0.99607843"
         id="g9883">
        <path
           sodipodi:nodetypes="ccccccccccccc"
           inkscape:connector-curvature="0"
           id="path9610-0"
           d="m -165.43164,85.994141 0.20312,0.683593 c 0.11012,0.372846 0.16536,0.759673 0.16602,1.148438 -0.004,2.097785 -1.58623,3.844984 -3.67383,4.052734 l -0.33789,0.0332 -0.0937,0.326172 c -0.0794,0.276877 -0.18845,0.544812 -0.32422,0.798828 l -0.125,0.236329 0.12696,0.236328 c 0.8833,1.644663 2.59994,2.673284 4.46679,2.675781 2.79941,-1.65e-4 5.07916,-2.280674 5.07813,-5.080078 -0.001,-2.681134 -2.09711,-4.908079 -4.77344,-5.06836 z"
           style="color:#000000;font-style:normal;font-variant:normal;font-weight:normal;font-stretch:normal;font-size:medium;line-height:normal;font-family:sans-serif;font-variant-ligatures:normal;font-variant-position:normal;font-variant-caps:normal;font-variant-numeric:normal;font-variant-alternates:normal;font-feature-settings:normal;text-indent:0;text-align:start;text-decoration:none;text-decoration-line:none;text-decoration-style:solid;text-decoration-color:#000000;letter-spacing:normal;word-spacing:normal;text-transform:none;writing-mode:lr-tb;direction:ltr;text-orientation:mixed;dominant-baseline:auto;baseline-shift:baseline;text-anchor:start;white-space:normal;shape-padding:0;clip-rule:nonzero;display:inline;overflow:visible;visibility:visible;opacity:1;isolation:auto;mix-blend-mode:normal;color-interpolation:sRGB;color-interpolation-filters:linearRGB;solid-color:#000000;solid-opacity:1;vector-effect:none;fill:#000000;fill-opacity:0.99607843;fill-rule:nonzero;stroke:none;stroke-width:1;stroke-linecap:butt;stroke-linejoin:miter;stroke-miterlimit:4;stroke-dasharray:none;stroke-dashoffset:0;stroke-opacity:1;color-rendering:auto;image-rendering:auto;shape-rendering:auto;text-rendering:auto;enable-background:accumulate" />
        <path
           inkscape:connector-curvature="0"
           id="path9610"
           d="m -169.05078,92.216797 -0.43945,0.820312 c -0.71061,1.321549 -2.08763,2.144674 -3.58789,2.146485 -0.16775,-0.0013 -0.33588,-0.01329 -0.50196,-0.03516 l -0.87304,-0.115235 0.3496,0.810547 c 0.7802,1.80254 2.57567,3.06433 4.66016,3.06445 2.07408,-1.1e-4 3.85826,-1.251907 4.64453,-3.039059 l 0.29297,-0.66211 -0.72461,-0.03906 c -1.42068,-0.07458 -2.70259,-0.8716 -3.37891,-2.13086 z m -0.006,1.759765 c 0.7277,1.012563 1.7642,1.666909 2.9707,1.9375 -0.71968,1.150117 -1.89719,1.994063 -3.35742,1.994141 -1.38603,-8.1e-5 -2.48855,-0.786897 -3.22461,-1.839844 1.4739,-0.129137 2.75087,-0.896735 3.61133,-2.091797 z"
           style="color:#000000;font-style:normal;font-variant:normal;font-weight:normal;font-stretch:normal;font-size:medium;line-height:normal;font-family:sans-serif;font-variant-ligatures:normal;font-variant-position:normal;font-variant-caps:normal;font-variant-numeric:normal;font-variant-alternates:normal;font-feature-settings:normal;text-indent:0;text-align:start;text-decoration:none;text-decoration-line:none;text-decoration-style:solid;text-decoration-color:#000000;letter-spacing:normal;word-spacing:normal;text-transform:none;writing-mode:lr-tb;direction:ltr;text-orientation:mixed;dominant-baseline:auto;baseline-shift:baseline;text-anchor:start;white-space:normal;shape-padding:0;clip-rule:nonzero;display:inline;overflow:visible;visibility:visible;opacity:1;isolation:auto;mix-blend-mode:normal;color-interpolation:sRGB;color-interpolation-filters:linearRGB;solid-color:#000000;solid-opacity:1;vector-effect:none;fill:#000000;fill-opacity:0.99607843;fill-rule:nonzero;stroke:none;stroke-width:1;stroke-linecap:butt;stroke-linejoin:miter;stroke-miterlimit:4;stroke-dasharray:none;stroke-dashoffset:0;stroke-opacity:0.99607843;color-rendering:auto;image-rendering:auto;shape-rendering:auto;text-rendering:auto;enable-background:accumulate" />
        <path
           inkscape:connector-curvature="0"
           id="path9610-1"
           d="m -173.08203,86.027344 c -2.7988,-10e-7 -5.07813,2.27933 -5.07813,5.078125 0,2.798795 2.27933,5.078125 5.07813,5.078125 2.79879,0 5.08008,-2.27933 5.08008,-5.078125 0,-2.798795 -2.28129,-5.078126 -5.08008,-5.078125 z m 0,1 c 2.25835,-10e-7 4.08008,1.81977 4.08008,4.078125 0,2.258354 -1.82173,4.078125 -4.08008,4.078125 -2.25836,0 -4.07813,-1.819771 -4.07813,-4.078125 0,-2.258355 1.81977,-4.078126 4.07813,-4.078125 z"
           style="color:#000000;font-style:normal;font-variant:normal;font-weight:normal;font-stretch:normal;font-size:medium;line-height:normal;font-family:sans-serif;font-variant-ligatures:normal;font-variant-position:normal;font-variant-caps:normal;font-variant-numeric:normal;font-variant-alternates:normal;font-feature-settings:normal;text-indent:0;text-align:start;text-decoration:none;text-decoration-line:none;text-decoration-style:solid;text-decoration-color:#000000;letter-spacing:normal;word-spacing:normal;text-transform:none;writing-mode:lr-tb;direction:ltr;text-orientation:mixed;dominant-baseline:auto;baseline-shift:baseline;text-anchor:start;white-space:normal;shape-padding:0;clip-rule:nonzero;display:inline;overflow:visible;visibility:visible;opacity:1;isolation:auto;mix-blend-mode:normal;color-interpolation:sRGB;color-interpolation-filters:linearRGB;solid-color:#000000;solid-opacity:1;vector-effect:none;fill:#000000;fill-opacity:0.99607843;fill-rule:nonzero;stroke:none;stroke-width:1;stroke-linecap:butt;stroke-linejoin:miter;stroke-miterlimit:4;stroke-dasharray:none;stroke-dashoffset:0;stroke-opacity:1;color-rendering:auto;image-rendering:auto;shape-rendering:auto;text-rendering:auto;enable-background:accumulate" />
        <path
           inkscape:connector-curvature="0"
           id="path9610-6"
           d="m -168.63867,82.746094 -0.5,0.002 h -0.002 c -2.25768,0.0018 -4.24593,1.497185 -4.87305,3.666015 l -0.20899,0.71875 0.74414,-0.08203 c 0.13277,-0.01463 0.26489,-0.0219 0.39844,-0.02344 2.25817,1.28e-4 4.078,1.819953 4.07813,4.078125 -10e-4,0.382698 -0.0568,0.763501 -0.16407,1.130859 l -0.20703,0.710938 0.73633,-0.07422 c 2.59071,-0.257819 4.57327,-2.443368 4.57617,-5.046875 -1.5e-4,-2.62119 -2.02515,-4.815988 -4.57807,-5.080122 z m -0.5,1.001953 c 2.25816,1.33e-4 4.07799,1.81996 4.07812,4.078125 -0.003,1.863286 -1.28305,3.386483 -3.02539,3.863281 0.0234,-0.195764 0.0835,-0.386348 0.084,-0.583984 -1.5e-4,-2.647565 -2.06264,-4.76419 -4.65235,-4.992188 0.67821,-1.368584 1.94607,-2.36397 3.51563,-2.365234 z"
           style="color:#000000;font-style:normal;font-variant:normal;font-weight:normal;font-stretch:normal;font-size:medium;line-height:normal;font-family:sans-serif;font-variant-ligatures:normal;font-variant-position:normal;font-variant-caps:normal;font-variant-numeric:normal;font-variant-alternates:normal;font-feature-settings:normal;text-indent:0;text-align:start;text-decoration:none;text-decoration-line:none;text-decoration-style:solid;text-decoration-color:#000000;letter-spacing:normal;word-spacing:normal;text-transform:none;writing-mode:lr-tb;direction:ltr;text-orientation:mixed;dominant-baseline:auto;baseline-shift:baseline;text-anchor:start;white-space:normal;shape-padding:0;clip-rule:nonzero;display:inline;overflow:visible;visibility:visible;opacity:1;isolation:auto;mix-blend-mode:normal;color-interpolation:sRGB;color-interpolation-filters:linearRGB;solid-color:#000000;solid-opacity:1;vector-effect:none;fill:#000000;fill-opacity:0.99607843;fill-rule:nonzero;stroke:none;stroke-width:1;stroke-linecap:butt;stroke-linejoin:miter;stroke-miterlimit:4;stroke-dasharray:none;stroke-dashoffset:0;stroke-opacity:1;color-rendering:auto;image-rendering:auto;shape-rendering:auto;text-rendering:auto;enable-background:accumulate"
           sodipodi:nodetypes="ccccccccccccccccccccc" />
      </g>
    </g>
  </g>
</svg>
