<?xml version="1.0" encoding="UTF-8" standalone="no"?>
<svg
   xmlns:dc="http://purl.org/dc/elements/1.1/"
   xmlns:cc="http://creativecommons.org/ns#"
   xmlns:rdf="http://www.w3.org/1999/02/22-rdf-syntax-ns#"
   xmlns:svg="http://www.w3.org/2000/svg"
   xmlns="http://www.w3.org/2000/svg"
   width="21.639236mm"
   height="19.200035mm"
   viewBox="0 0 21.639236 19.200035"
   version="1.1"
   id="svg9952">
  <defs
     id="defs9946" />
  <metadata
     id="metadata9949">
    <rdf:RDF>
      <cc:Work
         rdf:about="">
        <dc:format>image/svg+xml</dc:format>
        <dc:type
           rdf:resource="http://purl.org/dc/dcmitype/StillImage" />
        <dc:title></dc:title>
      </cc:Work>
    </rdf:RDF>
  </metadata>
  <path
     id="path9610-0"
     d="m 15.121094,3.859375 0.240234,0.8105469 c 0.130824,0.4429454 0.198436,0.9033776 0.199219,1.3652343 -0.0042,2.4923698 -1.885022,4.5676308 -4.365235,4.8144528 l -0.402343,0.03906 -0.111328,0.386719 c -0.09429,0.328933 -0.221523,0.647443 -0.382813,0.949218 l -0.15039,0.28125 0.15039,0.279297 c 1.049377,1.95388 3.088795,3.176721 5.306641,3.179688 3.325727,-1.96e-4 6.034426,-2.709431 6.033203,-6.0351565 -0.0013,-3.1852074 -2.492359,-5.8291164 -5.671875,-6.0195313 z"
     style="color:#000000;font-style:normal;font-variant:normal;font-weight:normal;font-stretch:normal;font-size:medium;line-height:normal;font-family:sans-serif;font-variant-ligatures:normal;font-variant-position:normal;font-variant-caps:normal;font-variant-numeric:normal;font-variant-alternates:normal;font-feature-settings:normal;text-indent:0;text-align:start;text-decoration:none;text-decoration-line:none;text-decoration-style:solid;text-decoration-color:#000000;letter-spacing:normal;word-spacing:normal;text-transform:none;writing-mode:lr-tb;direction:ltr;text-orientation:mixed;dominant-baseline:auto;baseline-shift:baseline;text-anchor:start;white-space:normal;shape-padding:0;clip-rule:nonzero;display:inline;overflow:visible;visibility:visible;opacity:1;isolation:auto;mix-blend-mode:normal;color-interpolation:sRGB;color-interpolation-filters:linearRGB;solid-color:#000000;solid-opacity:1;vector-effect:none;fill:#2f3677;fill-opacity:0.99607843;fill-rule:nonzero;stroke:none;stroke-width:1.18801212;stroke-linecap:butt;stroke-linejoin:miter;stroke-miterlimit:4;stroke-dasharray:none;stroke-dashoffset:0;stroke-opacity:1;color-rendering:auto;image-rendering:auto;shape-rendering:auto;text-rendering:auto;enable-background:accumulate" />
  <path
     id="path9610"
     d="m 10.822266,11.251953 -0.523438,0.972656 c -0.8446271,1.570805 -2.4822498,2.549612 -4.2656249,2.550782 -0.1980287,-0.0018 -0.3957917,-0.01521 -0.5917969,-0.04102 l -1.0390624,-0.136719 0.4160156,0.960938 c 0.926883,2.141439 3.0607083,3.64048 5.5371096,3.640625 2.464028,-1.32e-4 4.583478,-1.486217 5.517578,-3.609375 l 0.347656,-0.78711 -0.859375,-0.04492 c -1.687787,-0.0886 -3.214107,-1.037187 -4.017578,-2.533203 z m -0.0059,2.087891 c 0.864115,1.202826 2.092538,1.97891 3.525391,2.300781 -0.854893,1.366837 -2.251191,2.371001 -3.986328,2.371094 -1.6462968,-9.7e-5 -2.9555721,-0.935052 -3.8300784,-2.185547 1.7517062,-0.153625 3.2689392,-1.06547 4.2910154,-2.486328 z"
     style="color:#000000;font-style:normal;font-variant:normal;font-weight:normal;font-stretch:normal;font-size:medium;line-height:normal;font-family:sans-serif;font-variant-ligatures:normal;font-variant-position:normal;font-variant-caps:normal;font-variant-numeric:normal;font-variant-alternates:normal;font-feature-settings:normal;text-indent:0;text-align:start;text-decoration:none;text-decoration-line:none;text-decoration-style:solid;text-decoration-color:#000000;letter-spacing:normal;word-spacing:normal;text-transform:none;writing-mode:lr-tb;direction:ltr;text-orientation:mixed;dominant-baseline:auto;baseline-shift:baseline;text-anchor:start;white-space:normal;shape-padding:0;clip-rule:nonzero;display:inline;overflow:visible;visibility:visible;opacity:1;isolation:auto;mix-blend-mode:normal;color-interpolation:sRGB;color-interpolation-filters:linearRGB;solid-color:#000000;solid-opacity:1;vector-effect:none;fill:#2f3677;fill-opacity:0.99607843;fill-rule:nonzero;stroke:none;stroke-width:1.18801212;stroke-linecap:butt;stroke-linejoin:miter;stroke-miterlimit:4;stroke-dasharray:none;stroke-dashoffset:0;stroke-opacity:1;color-rendering:auto;image-rendering:auto;shape-rendering:auto;text-rendering:auto;enable-background:accumulate" />
  <path
     id="path9610-1"
     d="M 6.0332031,3.8964844 C 2.708201,3.8964838 1.8339162e-7,6.6046854 0,9.9296875 1.8339162e-7,13.25469 2.708201,15.962891 6.0332031,15.962891 c 3.3250023,0 6.0332029,-2.708201 6.0332029,-6.0332035 0,-3.3250022 -2.7082006,-6.0332039 -6.0332029,-6.0332031 z m 0,1.1894531 c 2.6829528,-6e-7 4.8457029,2.1607972 4.8457029,4.84375 0,2.6829525 -2.1627501,4.8457035 -4.8457029,4.8457035 -2.6829526,0 -4.845703,-2.162751 -4.8457031,-4.8457035 1e-7,-2.6829527 2.1627505,-4.8437505 4.8457031,-4.84375 z"
     style="color:#000000;font-style:normal;font-variant:normal;font-weight:normal;font-stretch:normal;font-size:medium;line-height:normal;font-family:sans-serif;font-variant-ligatures:normal;font-variant-position:normal;font-variant-caps:normal;font-variant-numeric:normal;font-variant-alternates:normal;font-feature-settings:normal;text-indent:0;text-align:start;text-decoration:none;text-decoration-line:none;text-decoration-style:solid;text-decoration-color:#000000;letter-spacing:normal;word-spacing:normal;text-transform:none;writing-mode:lr-tb;direction:ltr;text-orientation:mixed;dominant-baseline:auto;baseline-shift:baseline;text-anchor:start;white-space:normal;shape-padding:0;clip-rule:nonzero;display:inline;overflow:visible;visibility:visible;opacity:1;isolation:auto;mix-blend-mode:normal;color-interpolation:sRGB;color-interpolation-filters:linearRGB;solid-color:#000000;solid-opacity:1;vector-effect:none;fill:#2f3677;fill-opacity:0.99607843;fill-rule:nonzero;stroke:none;stroke-width:1.18801212;stroke-linecap:butt;stroke-linejoin:miter;stroke-miterlimit:4;stroke-dasharray:none;stroke-dashoffset:0;stroke-opacity:1;color-rendering:auto;image-rendering:auto;shape-rendering:auto;text-rendering:auto;enable-background:accumulate" />
  <path
     id="path9610-6"
     d="M 10.714844,0 C 8.0326971,0.00215985 5.6688526,1.7808246 4.9238281,4.3574219 L 4.6777344,5.2109375 5.5605469,5.1132812 c 0.1573223,-0.017339 0.3143947,-0.027431 0.4726562,-0.029297 6.665e-4,0 0.00129,-3e-7 0.00195,0 2.6818104,0.00123 4.8435978,2.163634 4.8437498,4.8457031 -0.0014,0.4547725 -0.06781,0.9072075 -0.195312,1.3437505 l -0.246094,0.84375 0.875,-0.08594 c 3.077797,-0.306292 5.432098,-2.9050488 5.435547,-5.9980469 -1.83e-4,-3.1141365 -2.404411,-5.59849242 -5.4375,-5.91210935 V 0 h -0.59375 z m 0.002,1.1894531 c 2.682728,1.578e-4 4.843593,2.1610222 4.84375,4.84375 -0.0025,2.2149443 -1.522633,4.0234949 -3.59375,4.5898439 0.02773,-0.232017 0.09899,-0.457179 0.09961,-0.6914064 v -0.00195 C 12.066226,6.7371845 9.5484632,4.1764832 6.40625,3.9726562 7.2004382,2.3130348 8.8293565,1.190973 10.716797,1.1894531 Z"
     style="color:#000000;font-style:normal;font-variant:normal;font-weight:normal;font-stretch:normal;font-size:medium;line-height:normal;font-family:sans-serif;font-variant-ligatures:normal;font-variant-position:normal;font-variant-caps:normal;font-variant-numeric:normal;font-variant-alternates:normal;font-feature-settings:normal;text-indent:0;text-align:start;text-decoration:none;text-decoration-line:none;text-decoration-style:solid;text-decoration-color:#000000;letter-spacing:normal;word-spacing:normal;text-transform:none;writing-mode:lr-tb;direction:ltr;text-orientation:mixed;dominant-baseline:auto;baseline-shift:baseline;text-anchor:start;white-space:normal;shape-padding:0;clip-rule:nonzero;display:inline;overflow:visible;visibility:visible;opacity:1;isolation:auto;mix-blend-mode:normal;color-interpolation:sRGB;color-interpolation-filters:linearRGB;solid-color:#000000;solid-opacity:1;vector-effect:none;fill:#2f3677;fill-opacity:0.99607843;fill-rule:nonzero;stroke:none;stroke-width:1.18801212;stroke-linecap:butt;stroke-linejoin:miter;stroke-miterlimit:4;stroke-dasharray:none;stroke-dashoffset:0;stroke-opacity:1;color-rendering:auto;image-rendering:auto;shape-rendering:auto;text-rendering:auto;enable-background:accumulate" />
</svg>
